<?xml version="1.0" encoding="UTF-8"?>
<svg version="1.1" xmlns="http://www.w3.org/2000/svg" width="300" height="300">
<path d="M0 0 C99 0 198 0 300 0 C300 99 300 198 300 300 C201 300 102 300 0 300 C0 201 0 102 0 0 Z " fill="#4B3A30" transform="translate(0,0)"/>
<path d="M0 0 C12.21 0 24.42 0 37 0 C37 23.76 37 47.52 37 72 C60.76 72 84.52 72 109 72 C109 48.24 109 24.48 109 0 C121.21 0 133.42 0 146 0 C146 60.39 146 120.78 146 183 C133.79 183 121.58 183 109 183 C109 156.6 109 130.2 109 103 C85.24 103 61.48 103 37 103 C37 129.4 37 155.8 37 183 C24.79 183 12.58 183 0 183 C0 122.61 0 62.22 0 0 Z " fill="#FEFEFE" transform="translate(78,59)"/>
</svg>
